<?xml version="1.0"?>
<!DOCTYPE svg PUBLIC "-//W3C//DTD SVG 1.1//EN" "http://www.w3.org/Graphics/SVG/1.1/DTD/svg11.dtd">
<svg xmlns="http://www.w3.org/2000/svg"
	 xmlns:xlink="http://www.w3.org/1999/xlink"
	 version="1.1" 
	 width="480px" height="480px"
	 style="background-color: rgb(255, 255, 255);">
  <defs>
    <rect id="r1" width="100" height="100" fill-opacity="0.5" fill="#0000ff" stroke="#000000" stroke-width="3"/>
	<polygon id="ps" viewBox="0 0 40 140" points="0 0 40 40 40 140 0 100" fill-opacity="0.5" fill="#00ff00" stroke="#000000" stroke-width="3"/>
	<polygon id="pv" viewBox="0 0 140 40" points="0 0 100 0 140 40 40 40" fill-opacity="0.5" fill="#ff0000" stroke="#000000" stroke-width="3"/>

	<g id="cube" viewBox="0 0 140 140">
	  <use xlink:href="#r1" x="0" y="0" />
      <use xlink:href="#ps" x="100" y="0" />
      <use xlink:href="#pv" x="0" y="100" />

	  <use xlink:href="#r1" x="40" y="40" />
      <use xlink:href="#ps" x="0" y="0" />
      <use xlink:href="#pv" x="0" y="0" />
	</g>
  </defs>

  <g>
	<g>
	  <use xlink:href="#cube" x="240" y="240" />
	  <animate attributeType="XML" attributeName="opacity" from="0" to="1" begin="0s" dur="1.2s" fill="freeze" />
	</g>

	<g opacity="0">
	  <use xlink:href="#cube" x="140" y="240" />
	  <use xlink:href="#cube" x="240" y="140" />
	  <use xlink:href="#cube" x="280" y="280" />
	  <animate attributeType="XML" attributeName="opacity" from="0" to="1" begin="1s" dur="1.2s" fill="freeze" />
	</g>

	<g opacity="0">
	  <use xlink:href="#cube" x="40"  y="240" />
	  <use xlink:href="#cube" x="140" y="140" />
	  <use xlink:href="#cube" x="180" y="280" />
	  <use xlink:href="#cube" x="240" y="40" />
	  <use xlink:href="#cube" x="280" y="180" />
	  <use xlink:href="#cube" x="320" y="320" />
	  <animate attributeType="XML" attributeName="opacity" from="0" to="1" begin="2s" dur="1.2s" fill="freeze" />
	</g>

	<g opacity="0">
	  <use xlink:href="#cube" x="40"  y="140" />
	  <use xlink:href="#cube" x="80"  y="280" />
	  <use xlink:href="#cube" x="140"  y="40" />
	  <use xlink:href="#cube" x="280"  y="80" />
	  <use xlink:href="#cube" x="320"  y="220" />
	  <use xlink:href="#cube" x="220"  y="320" />
	  <animate attributeType="XML" attributeName="opacity" from="0" to="1" begin="3s" dur="1.2s" fill="freeze" />
	</g>

	<g opacity="0">
	  <use xlink:href="#cube" x="40"  y="40" />
	  <use xlink:href="#cube" x="120"  y="320" />
	  <use xlink:href="#cube" x="180"  y="180" />
	  <use xlink:href="#cube" x="320"  y="120" />
	  <animate attributeType="XML" attributeName="opacity" from="0" to="1" begin="4s" dur="1.2s" fill="freeze" />
	</g>

	<g opacity="0">
	  <use xlink:href="#cube" x="80"  y="180" />
	  <use xlink:href="#cube" x="180"  y="80" />
	  <use xlink:href="#cube" x="220"  y="220" />
	  <animate attributeType="XML" attributeName="opacity" from="0" to="1" begin="5s" dur="1.2s" fill="freeze" />
	</g>

	<g opacity="0">
	  <use xlink:href="#cube" x="80"  y="80" />
	  <use xlink:href="#cube" x="220"  y="120" />
	  <use xlink:href="#cube" x="120"  y="220" />
	  <animate attributeType="XML" attributeName="opacity" from="0" to="1" begin="6s" dur="1.2s" fill="freeze" />
	</g>

	<g opacity="0">
	  <use xlink:href="#cube" x="120"  y="120" />
	  <animate attributeType="XML" attributeName="opacity" from="0" to="1" begin="7s" dur="1.2s" fill="freeze" />
	</g>
  </g>
</svg>
